# xmcd
#
# Track frame offsets:
#	150
#	18741
#	34225
#	47876
#	59124
#	69973
#	83168
#	94450
#	108465
#	126372
#	143457
#
# Disc length: 1983 seconds
#
# Revision: 1
# Processed by: cddbd v1.5.2PL0 Copyright (c) Steve Scherf et al.
# Submitted via: EasyCDDAExtractor 15.3.0.1
#
DISCID=a007bd0b
DTITLE=Sixtyfive Cadillac - Sixtyfive Cadillac 2
DYEAR=2002
DGENRE=Blues
TTITLE0=Flip, Flop and Fly
TTITLE1=Day Tripper
TTITLE2=Shake Your Tailfeather
TTITLE3=Jailhouse Rock
TTITLE4=Lucille
TTITLE5=Hard To Handle
TTITLE6=Fannie Mae
TTITLE7=Big Leg Emma
TTITLE8=Come Together
TTITLE9=Them Changes
TTITLE10=65...To Be Continued
EXTD=
EXTT0=
EXTT1=
EXTT2=
EXTT3=
EXTT4=
EXTT5=
EXTT6=
EXTT7=
EXTT8=
EXTT9=
EXTT10=
PLAYORDER=
